<?xml version="1.0" encoding="UTF-8"?>
<svg id="_レイヤー_7" data-name="レイヤー 7" xmlns="http://www.w3.org/2000/svg" viewBox="0 0 180.07 142.13">
  <defs>
    <style>
      .cls-1 {
        fill: #ec6fbf;
      }

      .cls-2 {
        fill: #fff;
      }

      .cls-3 {
        fill: #40445e;
      }
    </style>
  </defs>
  <path class="cls-3" d="M57.02,103.01V55.55h-23.2v47.46c0,24.57,14.15,39.12,37.35,39.12,5.7,0,12.19-1.18,15.53-3.15v-21.43c-2.95,1.57-9.04,2.56-13.17,2.56-10.62,0-16.51-6.29-16.51-17.1Z"/>
  <path class="cls-3" d="M124.25,103.01V55.55h-23.2v47.46c0,24.57,14.15,39.12,37.35,39.12,5.7,0,12.19-1.18,15.53-3.15v-21.43c-2.95,1.57-9.04,2.56-13.17,2.56-10.62,0-16.51-6.29-16.51-17.1Z"/>
  <g>
    <polygon class="cls-2" points="2 69.55 2 22.55 143.77 22.55 176.64 46.05 143.77 69.55 2 69.55"/>
    <path class="cls-3" d="M143.13,24.55l30.07,21.5-30.07,21.5H4V24.55H143.13m1.28-4H0v51H144.41l35.66-25.5-35.66-25.5h0Z"/>
  </g>
  <rect class="cls-1" y="20.55" width="144.41" height="51"/>
  <polygon class="cls-3" points="180.07 46.05 162.56 58.58 162.56 33.53 180.07 46.05"/>
  <rect class="cls-3" x="33.83" width="23.2" height="46.55"/>
  <rect class="cls-3" x="101.05" width="23.2" height="46.55"/>
</svg>