<?xml version="1.0" encoding="UTF-8"?>
<svg id="_レイヤー_6" data-name="レイヤー 6" xmlns="http://www.w3.org/2000/svg" viewBox="0 0 903.98 156.48">
  <defs>
    <style>
      .cls-1 {
        fill: #ec6fbf;
      }

      .cls-2 {
        fill: #fff;
      }

      .cls-3 {
        fill: #40445e;
      }
    </style>
  </defs>
  <path class="cls-3" d="M0,80.2C0,36.96,32.83,3.93,76.08,3.93s76.08,33.02,76.08,76.27-32.44,76.27-76.08,76.27S0,123.26,0,80.2Zm127.78,0c0-30.86-22.02-54.26-51.7-54.26S24.57,49.34,24.57,80.2s21.62,53.67,51.5,53.67,51.7-23.2,51.7-53.67Z"/>
  <path class="cls-3" d="M236.68,153.33l-53.27-56.02v56.02h-21.43V0h21.43V94.75l51.11-48.95h28.9l-52.68,49.73,56.02,57.79h-30.08Z"/>
  <path class="cls-3" d="M271.27,102.81V45.8h23.59v58.58c0,18.67,8.85,31.26,28.11,31.26s28.11-12.38,28.11-31.26V45.8h23.59v57.2c0,33.03-18.28,53.47-51.7,53.47s-51.7-20.64-51.7-53.67Z"/>
  <path class="cls-3" d="M388.85,0h23.59V123.06c0,8.26,5.31,11.6,10.62,11.6,3.34,0,5.9-.79,8.06-1.97v20.25c-3.34,2.36-9.04,3.54-14.55,3.54-17.69,0-27.72-12.78-27.72-30.27V0Z"/>
  <path class="cls-3" d="M532.51,107.14h-79.02c2.75,18.09,16.12,28.5,37.74,28.5,16.51,0,28.11-4.13,37.15-9.63l.39,21.03c-11.79,7.08-25.16,9.44-38.92,9.44-35.78,0-59.37-23-59.37-56.62s23.2-57.01,53.67-57.01c27.32,0,49.54,19.26,49.54,52.68,0,4.72-.59,8.85-1.18,11.6Zm-78.44-18.28h57.2c-.98-16.12-11.6-26.15-27.91-26.15-14.94,0-25.95,10.03-29.29,26.15Z"/>
  <path class="cls-3" d="M820.88,107.14h-79.02c2.75,18.09,16.12,28.5,37.74,28.5,16.51,0,28.11-4.13,37.15-9.63l.39,21.03c-11.79,7.08-25.16,9.44-38.92,9.44-35.78,0-59.37-23-59.37-56.62s23.2-57.01,53.67-57.01c27.32,0,49.54,19.26,49.54,52.68,0,4.72-.59,8.85-1.18,11.6Zm-78.43-18.28h57.2c-.98-16.12-11.6-26.15-27.91-26.15-14.94,0-25.95,10.03-29.29,26.15Z"/>
  <path class="cls-3" d="M903.98,44.43v23.79c-3.93-1.57-8.85-2.75-14.74-2.75-18.67,0-33.22,11.01-33.22,32.44v55.44h-23.59V45.8h22.41v17.5c5.9-11.01,19.85-20.44,37.74-20.44,3.93,0,8.65,.79,11.4,1.57Z"/>
  <path class="cls-3" d="M598.36,117.36v-47.46h-23.2v47.46c0,24.57,14.15,39.12,37.35,39.12,5.7,0,12.19-1.18,15.53-3.15v-21.43c-2.95,1.57-9.04,2.56-13.17,2.56-10.62,0-16.51-6.29-16.51-17.1Z"/>
  <path class="cls-3" d="M665.59,117.36v-47.46h-23.2v47.46c0,24.57,14.15,39.12,37.35,39.12,5.7,0,12.19-1.18,15.53-3.15v-21.43c-2.95,1.57-9.04,2.56-13.17,2.56-10.62,0-16.51-6.29-16.51-17.1Z"/>
  <g>
    <polygon class="cls-2" points="543.34 83.9 543.34 36.9 685.11 36.9 717.97 60.4 685.11 83.9 543.34 83.9"/>
    <path class="cls-3" d="M684.47,38.9l30.07,21.5-30.07,21.5h-139.13V38.9h139.13m1.28-4h-144.41v51h144.41l35.66-25.5-35.66-25.5h0Z"/>
  </g>
  <rect class="cls-1" x="541.34" y="34.9" width="144.41" height="51"/>
  <polygon class="cls-3" points="721.41 60.4 703.9 72.93 703.9 47.88 721.41 60.4"/>
  <rect class="cls-3" x="575.16" y="14.35" width="23.2" height="46.55"/>
  <rect class="cls-3" x="642.39" y="14.35" width="23.2" height="46.55"/>
</svg>